<svg width="20" height="25" viewBox="0 0 20 25" fill="none" xmlns="http://www.w3.org/2000/svg">
<path d="M7.14286 5.46875C7.14286 3.74512 8.42411 2.34375 10 2.34375C11.5759 2.34375 12.8571 3.74512 12.8571 5.46875V7.8125H7.14286V5.46875ZM5 7.8125H2.14286C0.959821 7.8125 0 8.8623 0 10.1562V20.3125C0 22.9004 1.91964 25 4.28571 25H15.7143C18.0804 25 20 22.9004 20 20.3125V10.1562C20 8.8623 19.0402 7.8125 17.8571 7.8125H15V5.46875C15 2.44629 12.7634 0 10 0C7.23661 0 5 2.44629 5 5.46875V7.8125ZM6.07143 10.1562C6.66518 10.1562 7.14286 10.6787 7.14286 11.3281C7.14286 11.9775 6.66518 12.5 6.07143 12.5C5.47768 12.5 5 11.9775 5 11.3281C5 10.6787 5.47768 10.1562 6.07143 10.1562ZM12.8571 11.3281C12.8571 10.6787 13.3348 10.1562 13.9286 10.1562C14.5223 10.1562 15 10.6787 15 11.3281C15 11.9775 14.5223 12.5 13.9286 12.5C13.3348 12.5 12.8571 11.9775 12.8571 11.3281Z" fill="#1C1C1C"/>
</svg>
