<svg width="20" height="25" viewBox="0 0 20 25" fill="none" xmlns="http://www.w3.org/2000/svg">
<path d="M6.10268 1.03693L5.71429 2.27273H1.42857C0.638393 2.27273 0 2.94981 0 3.78788C0 4.62595 0.638393 5.30303 1.42857 5.30303H18.5714C19.3616 5.30303 20 4.62595 20 3.78788C20 2.94981 19.3616 2.27273 18.5714 2.27273H14.2857L13.8973 1.03693C13.7009 0.416667 13.1563 0 12.5402 0H7.45982C6.84375 0 6.29911 0.416667 6.10268 1.03693ZM18.5714 7.57576H1.42857L2.37054 22.8741C2.44196 24.072 3.37946 25 4.50893 25H15.4911C16.6205 25 17.558 24.072 17.6295 22.8741L18.5714 7.57576Z" fill="#1C1C1C"/>
</svg>
