<svg width="34" height="39" viewBox="0 0 34 39" fill="none" xmlns="http://www.w3.org/2000/svg">
<path d="M12.2 8.8C12.2 6.1525 14.3525 4 17 4C19.6474 4 21.7999 6.1525 21.7999 8.8V12.4H12.2V8.8ZM8.59995 12.4H3.79995C1.81245 12.4 0.199951 14.0125 0.199951 16V31.6C0.199951 35.575 3.42495 38.8 7.39995 38.8H26.5999C30.5749 38.8 33.7999 35.575 33.7999 31.6V16C33.7999 14.0125 32.1874 12.4 30.1999 12.4H25.4V8.8C25.4 4.1575 21.6425 0.400002 17 0.400002C12.3575 0.400002 8.59995 4.1575 8.59995 8.8V12.4ZM10.4 16C11.3975 16 12.2 16.8025 12.2 17.8C12.2 18.7975 11.3975 19.6 10.4 19.6C9.40245 19.6 8.59995 18.7975 8.59995 17.8C8.59995 16.8025 9.40245 16 10.4 16ZM21.7999 17.8C21.7999 16.8025 22.6024 16 23.5999 16C24.5975 16 25.4 16.8025 25.4 17.8C25.4 18.7975 24.5975 19.6 23.5999 19.6C22.6024 19.6 21.7999 18.7975 21.7999 17.8Z" fill="#1C1C1C"/>
</svg>
