<svg width="25" height="25" viewBox="0 0 25 25" fill="none" xmlns="http://www.w3.org/2000/svg">
<path d="M0 1.13636C0 0.506629 0.469743 0 1.05363 0H3.04235C4.23208 0 5.25059 0.918561 5.46131 2.17803L5.47887 2.27273H23.5969C24.4749 2.27273 25.1378 3.13447 24.9754 4.06723L23.6101 11.9223C23.3598 13.357 22.2008 14.3939 20.8487 14.3939H7.52028L7.74418 15.7339C7.83637 16.2737 8.27099 16.6667 8.78024 16.6667H20.019C20.6028 16.6667 21.0726 17.1733 21.0726 17.803C21.0726 18.4328 20.6028 18.9394 20.019 18.9394H8.78464C7.25687 18.9394 5.94862 17.7604 5.67643 16.1411L3.38917 2.58523C3.35844 2.4053 3.21357 2.27273 3.04235 2.27273H1.05363C0.469743 2.27273 0 1.7661 0 1.13636ZM7.0242 22.7273C7.0242 21.4725 7.96807 20.4545 9.13145 20.4545C10.2948 20.4545 11.2387 21.4725 11.2387 22.7273C11.2387 23.982 10.2948 25 9.13145 25C7.96807 25 7.0242 23.982 7.0242 22.7273ZM16.8581 22.7273C16.8581 21.4725 17.8019 20.4545 18.9653 20.4545C20.1287 20.4545 21.0726 21.4725 21.0726 22.7273C21.0726 23.982 20.1287 25 18.9653 25C17.8019 25 16.8581 23.982 16.8581 22.7273ZM14.7508 4.4697C14.1669 4.4697 13.6972 4.97633 13.6972 5.60606V7.19697H12.2221C11.6382 7.19697 11.1685 7.7036 11.1685 8.33333C11.1685 8.96307 11.6382 9.4697 12.2221 9.4697H13.6972V11.0606C13.6972 11.6903 14.1669 12.197 14.7508 12.197C15.3347 12.197 15.8044 11.6903 15.8044 11.0606V9.4697H17.2795C17.8634 9.4697 18.3332 8.96307 18.3332 8.33333C18.3332 7.7036 17.8634 7.19697 17.2795 7.19697H15.8044V5.60606C15.8044 4.97633 15.3347 4.4697 14.7508 4.4697Z" fill="#1C1C1C"/>
</svg>
