<svg width="25" height="20" viewBox="0 0 25 20" fill="none" xmlns="http://www.w3.org/2000/svg">
<path d="M0 3.33333V5H25V3.33333C25 1.49479 23.5986 0 21.875 0H3.125C1.40137 0 0 1.49479 0 3.33333ZM0 7.5V16.6667C0 18.5052 1.40137 20 3.125 20H21.875C23.5986 20 25 18.5052 25 16.6667V7.5H0ZM3.125 15.4167C3.125 14.724 3.64746 14.1667 4.29688 14.1667H6.64062C7.29004 14.1667 7.8125 14.724 7.8125 15.4167C7.8125 16.1094 7.29004 16.6667 6.64062 16.6667H4.29688C3.64746 16.6667 3.125 16.1094 3.125 15.4167ZM10.1562 15.4167C10.1562 14.724 10.6787 14.1667 11.3281 14.1667H14.4531C15.1025 14.1667 15.625 14.724 15.625 15.4167C15.625 16.1094 15.1025 16.6667 14.4531 16.6667H11.3281C10.6787 16.6667 10.1562 16.1094 10.1562 15.4167Z" fill="#1C1C1C"/>
</svg>
