<svg width="25" height="25" viewBox="0 0 25 25" fill="none" xmlns="http://www.w3.org/2000/svg">
<path d="M3.57143 0C1.60156 0 0 1.60156 0 3.57143V21.4286C0 23.3984 1.60156 25 3.57143 25H21.4286C23.3984 25 25 23.3984 25 21.4286V3.57143C25 1.60156 23.3984 0 21.4286 0H3.57143ZM7.53348 7.53348C8.05804 7.00893 8.90625 7.00893 9.42522 7.53348L12.4944 10.6027L15.5636 7.53348C16.0882 7.00893 16.9364 7.00893 17.4554 7.53348C17.9743 8.05804 17.9799 8.90625 17.4554 9.42522L14.3862 12.4944L17.4554 15.5636C17.9799 16.0882 17.9799 16.9364 17.4554 17.4554C16.9308 17.9743 16.0826 17.9799 15.5636 17.4554L12.4944 14.3862L9.42522 17.4554C8.90067 17.9799 8.05246 17.9799 7.53348 17.4554C7.01451 16.9308 7.00893 16.0826 7.53348 15.5636L10.6027 12.4944L7.53348 9.42522C7.00893 8.90067 7.00893 8.05246 7.53348 7.53348Z" fill="#D4AF37"/>
</svg>
