<svg width="30" height="30" viewBox="0 0 30 30" fill="none" xmlns="http://www.w3.org/2000/svg">
<path d="M25.7143 0H4.28571C1.92187 0 0 1.92187 0 4.28571V25.7143C0 28.0781 1.92187 30 4.28571 30H9.14732L9 29.9464C8.63839 26.7254 8.79241 26.096 10.0513 20.9263C10.3125 19.8549 10.6205 18.5826 10.9821 17.0491C10.9821 17.0491 10.4933 16.058 10.4933 14.6049C10.4933 9.87054 15.5491 9.3817 15.5491 12.9308C15.5491 13.8348 15.1875 15.0134 14.7991 16.2656C14.5781 16.9754 14.3571 17.7054 14.1897 18.4085C13.808 20.0491 15.0134 21.3817 16.6272 21.3817C19.5536 21.3817 21.7969 18.3013 21.7969 13.8549C21.7969 9.91741 18.9643 7.16518 14.9263 7.16518C10.2455 7.16518 7.5 10.6741 7.5 14.3036C7.5 15.7165 8.04911 17.2299 8.72545 18.0536C8.85937 18.2143 8.87946 18.3549 8.83929 18.5223C8.76562 18.8371 8.6317 19.3862 8.52455 19.808C8.45759 20.0759 8.40402 20.2969 8.38393 20.3839C8.31027 20.6853 8.14955 20.7522 7.83482 20.6049C5.78571 19.6473 4.5 16.6473 4.5 14.2366C4.5 9.04688 8.26339 4.28571 15.3616 4.28571C21.067 4.28571 25.5 8.35045 25.5 13.7812C25.5 19.4464 21.9308 24.0067 16.9687 24.0067C15.3013 24.0067 13.7344 23.1429 13.1987 22.1183C13.1987 22.1183 12.375 25.2589 12.1741 26.029C11.8393 27.3214 10.9955 28.9018 10.3393 30H25.7143C28.0781 30 30 28.0781 30 25.7143V4.28571C30 1.92187 28.0781 0 25.7143 0Z" fill="#D4AF37"/>
</svg>
