<svg width="30" height="30" viewBox="0 0 30 30" fill="none" xmlns="http://www.w3.org/2000/svg">
<path d="M13.0179 12.0335C11.9196 12.7232 11.2835 13.9621 11.3504 15.2545C11.4241 16.5536 12.2009 17.7054 13.3661 18.2746C14.5379 18.8371 15.9241 18.7165 16.9821 17.9665C18.0804 17.2768 18.7165 16.0379 18.6496 14.7455C18.5759 13.4464 17.7991 12.2946 16.6339 11.7254C15.4621 11.1629 14.0759 11.2835 13.0179 12.0335ZM22.5469 7.45312C22.1987 7.10491 21.7768 6.83036 21.3147 6.64955C20.1027 6.17411 17.4576 6.1942 15.75 6.21429C15.4754 6.21429 15.221 6.22098 15 6.22098C14.779 6.22098 14.5179 6.22098 14.2366 6.21429C12.529 6.1942 9.89732 6.16741 8.68527 6.64955C8.22321 6.83036 7.80804 7.10491 7.45312 7.45312C7.09821 7.80134 6.83036 8.22321 6.64955 8.68527C6.17411 9.89732 6.20089 12.5491 6.21429 14.2567C6.21429 14.5312 6.22098 14.7857 6.22098 15C6.22098 15.2143 6.22098 15.4687 6.21429 15.7433C6.20089 17.4509 6.17411 20.1027 6.64955 21.3147C6.83036 21.7768 7.10491 22.192 7.45312 22.5469C7.80134 22.9018 8.22321 23.1696 8.68527 23.3504C9.89732 23.8259 12.5424 23.8058 14.25 23.7857C14.5246 23.7857 14.779 23.779 15 23.779C15.221 23.779 15.4821 23.779 15.7634 23.7857C17.471 23.8058 20.1027 23.8326 21.3147 23.3504C21.7768 23.1696 22.192 22.8951 22.5469 22.5469C22.9018 22.1987 23.1696 21.7768 23.3504 21.3147C23.8326 20.1094 23.8058 17.471 23.7857 15.7567C23.7857 15.4754 23.779 15.2143 23.779 14.9933C23.779 14.7723 23.779 14.5179 23.7857 14.2299C23.8058 12.5223 23.8326 9.88393 23.3504 8.67187C23.1696 8.20982 22.8951 7.79464 22.5469 7.43973V7.45312ZM18.0536 10.433C19.2656 11.2433 20.1027 12.5022 20.3906 13.9286C20.6786 15.3549 20.3772 16.8415 19.567 18.0536C19.1652 18.6562 18.6496 19.1652 18.0536 19.567C17.4576 19.9688 16.7812 20.2433 16.0714 20.3839C14.6451 20.6652 13.1585 20.3705 11.9464 19.5603C10.7344 18.75 9.89732 17.4911 9.60937 16.0647C9.32143 14.6384 9.62277 13.1518 10.4263 11.9397C11.2299 10.7277 12.4955 9.89062 13.9219 9.60268C15.3482 9.31473 16.8348 9.61607 18.0469 10.4196H18.0536V10.433ZM20.0089 10.346C19.8013 10.2054 19.6339 10.0045 19.5335 9.77009C19.433 9.53571 19.4129 9.28125 19.4598 9.02679C19.5067 8.77232 19.6339 8.55134 19.808 8.37054C19.9821 8.18973 20.2165 8.0692 20.4643 8.02232C20.7121 7.97545 20.9732 7.99554 21.2076 8.09598C21.442 8.19643 21.6429 8.35714 21.7835 8.56473C21.9241 8.77232 21.9978 9.02009 21.9978 9.27455C21.9978 9.44196 21.9643 9.60937 21.904 9.76339C21.8437 9.91741 21.7433 10.058 21.6295 10.1786C21.5156 10.2991 21.3683 10.3929 21.2143 10.4598C21.0603 10.5268 20.8929 10.5603 20.7254 10.5603C20.471 10.5603 20.2232 10.4866 20.0156 10.346H20.0089ZM30 4.28571C30 1.92187 28.0781 0 25.7143 0H4.28571C1.92187 0 0 1.92187 0 4.28571V25.7143C0 28.0781 1.92187 30 4.28571 30H25.7143C28.0781 30 30 28.0781 30 25.7143V4.28571ZM23.9062 23.9062C22.654 25.1585 21.1339 25.5536 19.4196 25.6406C17.6518 25.7411 12.3482 25.7411 10.5804 25.6406C8.86607 25.5536 7.34598 25.1585 6.09375 23.9062C4.84152 22.654 4.44643 21.1339 4.36607 19.4196C4.26562 17.6518 4.26562 12.3482 4.36607 10.5804C4.45312 8.86607 4.84152 7.34598 6.09375 6.09375C7.34598 4.84152 8.87277 4.44643 10.5804 4.36607C12.3482 4.26562 17.6518 4.26562 19.4196 4.36607C21.1339 4.45312 22.654 4.84152 23.9062 6.09375C25.1585 7.34598 25.5536 8.86607 25.6339 10.5804C25.7344 12.3415 25.7344 17.6384 25.6339 19.4129C25.5469 21.1272 25.1585 22.6473 23.9062 23.8996V23.9062Z" fill="#D4AF37"/>
</svg>
