<svg width="25" height="25" viewBox="0 0 25 25" fill="none" xmlns="http://www.w3.org/2000/svg">
<g clip-path="url(#clip0_35_1994)">
<rect x="-6" y="-6" width="86" height="86" fill="#D4AF37"/>
<path d="M13.405 8.26803C13.405 7.86212 13.0771 7.53418 12.6712 7.53418C12.2653 7.53418 11.9373 7.86212 11.9373 8.26803V11.9373H8.26803C7.86212 11.9373 7.53418 12.2653 7.53418 12.6712C7.53418 13.0771 7.86212 13.405 8.26803 13.405H11.9373V17.0743C11.9373 17.4802 12.2653 17.8082 12.6712 17.8082C13.0771 17.8082 13.405 17.4802 13.405 17.0743V13.405H17.0743C17.4802 13.405 17.8082 13.0771 17.8082 12.6712C17.8082 12.2653 17.4802 11.9373 17.0743 11.9373H13.405V8.26803Z" fill="black"/>
</g>
<defs>
<clipPath id="clip0_35_1994">
<rect width="25" height="25" fill="white"/>
</clipPath>
</defs>
</svg>
