<svg width="25" height="20" viewBox="0 0 25 20" fill="none" xmlns="http://www.w3.org/2000/svg">
<path d="M3.125 0C1.40137 0 0 1.49479 0 3.33333V16.6667C0 18.5052 1.40137 20 3.125 20H21.875C23.5986 20 25 18.5052 25 16.6667V3.33333C25 1.49479 23.5986 0 21.875 0H3.125ZM12.5 5C15.0879 5 17.1875 7.23958 17.1875 10C17.1875 12.7604 15.0879 15 12.5 15C9.91211 15 7.8125 12.7604 7.8125 10C7.8125 7.23958 9.91211 5 12.5 5ZM21.875 6.25C21.875 6.47917 21.6992 6.67187 21.4844 6.64062C20.0684 6.45312 18.9502 5.25521 18.7744 3.75C18.75 3.52083 18.9258 3.33333 19.1406 3.33333H21.4844C21.6992 3.33333 21.875 3.52083 21.875 3.75V6.25ZM3.125 13.75C3.125 13.5208 3.30078 13.3281 3.51562 13.3594C4.93164 13.5469 6.0498 14.7448 6.22559 16.25C6.25 16.4792 6.07422 16.6667 5.85938 16.6667H3.51562C3.30078 16.6667 3.125 16.4792 3.125 16.25V13.75ZM3.51562 6.64062C3.30078 6.66667 3.125 6.47917 3.125 6.25V3.75C3.125 3.52083 3.30078 3.33333 3.51562 3.33333H5.85938C6.07422 3.33333 6.25488 3.52083 6.22559 3.75C6.0498 5.26042 4.92676 6.45312 3.51562 6.64062ZM21.4844 13.3594C21.6992 13.3333 21.875 13.5208 21.875 13.75V16.25C21.875 16.4792 21.6992 16.6667 21.4844 16.6667H19.1406C18.9258 16.6667 18.7451 16.4792 18.7744 16.25C18.9502 14.7396 20.0732 13.5469 21.4844 13.3594Z" fill="#1C1C1C"/>
</svg>
