<svg width="30" height="25" viewBox="0 0 30 25" fill="none" xmlns="http://www.w3.org/2000/svg">
<path d="M5 3.57143C5 1.60156 6.49479 0 8.33333 0H21.6667C23.5052 0 25 1.60156 25 3.57143V16.0714C25 18.0413 23.5052 19.6429 21.6667 19.6429H8.33333C6.49479 19.6429 5 18.0413 5 16.0714V3.57143ZM18.9948 4.66518C18.4115 4.27455 17.6406 4.46429 17.2708 5.08929L14.0729 10.5748L12.6667 8.56585C12.25 7.97433 11.4688 7.85156 10.9167 8.29799C10.3646 8.74442 10.25 9.58147 10.6667 10.173L13.1667 13.7444C13.4115 14.096 13.8073 14.2969 14.2188 14.2801C14.6302 14.2634 15.0052 14.029 15.224 13.6496L19.3906 6.5067C19.7552 5.8817 19.5781 5.0558 18.9948 4.6596V4.66518ZM2.5 15.625V21.4286C2.5 21.9196 2.875 22.3214 3.33333 22.3214H26.6667C27.125 22.3214 27.5 21.9196 27.5 21.4286V15.625C27.5 14.8828 28.0573 14.2857 28.75 14.2857C29.4427 14.2857 30 14.8828 30 15.625V21.4286C30 23.3984 28.5052 25 26.6667 25H3.33333C1.49479 25 0 23.3984 0 21.4286V15.625C0 14.8828 0.557292 14.2857 1.25 14.2857C1.94271 14.2857 2.5 14.8828 2.5 15.625Z" fill="black"/>
</svg>
