<svg width="14" height="14" viewBox="0 0 14 14" fill="none" xmlns="http://www.w3.org/2000/svg">
<path d="M8.09725 1.00623C8.09725 0.484903 7.67607 0.0637207 7.15475 0.0637207C6.63343 0.0637207 6.21224 0.484903 6.21224 1.00623V5.71875H1.49972C0.978395 5.71875 0.557213 6.13993 0.557213 6.66126C0.557213 7.18258 0.978395 7.60376 1.49972 7.60376H6.21224V12.3163C6.21224 12.8376 6.63343 13.2588 7.15475 13.2588C7.67607 13.2588 8.09725 12.8376 8.09725 12.3163V7.60376H12.8098C13.3311 7.60376 13.7523 7.18258 13.7523 6.66126C13.7523 6.13993 13.3311 5.71875 12.8098 5.71875H8.09725V1.00623Z" fill="black"/>
</svg>
