<svg width="22" height="20" viewBox="0 0 22 20" fill="none" xmlns="http://www.w3.org/2000/svg">
<path d="M0.222426 6.65625L2.51949 1.58036C2.96029 0.611607 3.85404 0 4.83676 0H17.1673C18.146 0 19.0438 0.611607 19.4805 1.58036L21.7776 6.65625C21.9232 6.97768 22 7.33036 22 7.69196C22 8.91071 21.1426 9.91071 20.0588 9.99554V18.5714C20.0588 19.3616 19.4805 20 18.7647 20C18.0489 20 17.4706 19.3616 17.4706 18.5714V10H13.5882V17.8571C13.5882 19.0402 12.7188 20 11.6471 20H3.88235C2.81066 20 1.94118 19.0402 1.94118 17.8571V9.99554C0.857353 9.91071 0 8.91071 0 7.69196C0 7.33482 0.0768382 6.97768 0.222426 6.65625ZM4.52941 10V15C4.52941 15.3929 4.82059 15.7143 5.17647 15.7143H10.3529C10.7088 15.7143 11 15.3929 11 15V10H4.52941Z" fill="black"/>
</svg>
