<svg width="1585" height="735" viewBox="0 0 1585 735" fill="none" xmlns="http://www.w3.org/2000/svg">
<rect width="1585" height="735" fill="#FAF9F7" fill-opacity="0.63"/>
<path d="M1035.54 61.176V63.736C1032.72 63.8213 1030.59 64.1627 1029.14 64.76C1027.77 65.272 1026.83 66.296 1026.32 67.832C1025.89 69.2827 1025.68 71.5867 1025.68 74.744V126.456C1025.68 129.187 1025.89 131.277 1026.32 132.728C1026.83 134.093 1027.73 134.989 1029.01 135.416C1030.37 135.843 1032.21 136.056 1034.51 136.056H1040.53C1044.11 136.056 1047.36 135.288 1050.26 133.752C1053.16 132.131 1055.59 129.528 1057.55 125.944C1059.6 122.36 1061.01 117.496 1061.78 111.352H1064.72C1064.47 114.083 1064.34 117.581 1064.34 121.848C1064.34 123.469 1064.38 125.901 1064.47 129.144C1064.64 132.301 1064.89 135.587 1065.23 139C1061.05 138.829 1056.36 138.744 1051.15 138.744C1045.95 138.659 1041.3 138.616 1037.2 138.616C1034.56 138.616 1031.01 138.616 1026.58 138.616C1022.23 138.616 1017.57 138.659 1012.63 138.744C1007.76 138.744 1003.15 138.829 998.801 139V136.44C1001.62 136.269 1003.71 135.928 1005.07 135.416C1006.52 134.904 1007.46 133.88 1007.89 132.344C1008.4 130.808 1008.66 128.504 1008.66 125.432V74.744C1008.66 71.5867 1008.4 69.2827 1007.89 67.832C1007.38 66.296 1006.4 65.272 1004.95 64.76C1003.58 64.1627 1001.53 63.8213 998.801 63.736V61.176C1000.85 61.2613 1003.54 61.3467 1006.87 61.432C1010.28 61.5173 1013.91 61.56 1017.75 61.56C1020.99 61.56 1024.23 61.5173 1027.47 61.432C1030.72 61.3467 1033.4 61.2613 1035.54 61.176ZM1159.31 60.792L1189.52 128.248C1190.97 131.32 1192.42 133.453 1193.87 134.648C1195.32 135.757 1196.65 136.355 1197.84 136.44V139C1195.96 138.829 1193.58 138.744 1190.67 138.744C1187.86 138.659 1185 138.616 1182.1 138.616C1178.26 138.616 1174.67 138.659 1171.35 138.744C1168.02 138.744 1165.29 138.829 1163.15 139V136.44C1167.25 136.269 1169.9 135.459 1171.09 134.008C1172.37 132.557 1172.03 129.784 1170.07 125.688L1149.07 77.816L1151.12 75.384L1132.95 116.6C1131.41 120.184 1130.43 123.213 1130 125.688C1129.66 128.163 1129.83 130.168 1130.51 131.704C1131.2 133.155 1132.39 134.264 1134.1 135.032C1135.8 135.8 1137.94 136.269 1140.5 136.44V139C1138.54 138.829 1136.4 138.744 1134.1 138.744C1131.88 138.659 1129.45 138.616 1126.8 138.616C1125.35 138.616 1123.52 138.659 1121.3 138.744C1119.08 138.744 1117.37 138.829 1116.18 139V136.44C1118.48 135.928 1120.49 134.563 1122.19 132.344C1123.9 130.125 1125.56 127.096 1127.19 123.256L1154.71 60.792C1155.47 60.8773 1156.24 60.92 1157.01 60.92C1157.78 60.92 1158.55 60.8773 1159.31 60.792ZM1169.94 108.536V111.096H1134.35L1135.63 108.536H1169.94ZM1324.66 61.176V63.736C1321.76 63.992 1319.54 64.632 1318.01 65.656C1316.55 66.5947 1315.57 68.1307 1315.06 70.264C1314.55 72.312 1314.29 75.256 1314.29 79.096V104.312C1314.29 110.029 1313.91 114.979 1313.14 119.16C1312.37 123.341 1311.01 127.011 1309.05 130.168C1307 133.325 1303.97 135.885 1299.96 137.848C1296.03 139.811 1291.51 140.792 1286.39 140.792C1282.21 140.792 1278.24 140.365 1274.49 139.512C1270.82 138.744 1267.53 137.293 1264.63 135.16C1261.81 132.856 1259.64 130.424 1258.1 127.864C1256.57 125.304 1255.5 122.189 1254.9 118.52C1254.39 114.851 1254.13 110.243 1254.13 104.696V74.744C1254.13 71.5867 1253.88 69.2827 1253.37 67.832C1252.94 66.296 1252 65.272 1250.55 64.76C1249.1 64.1627 1247.01 63.8213 1244.28 63.736V61.176C1246.24 61.2613 1248.84 61.3467 1252.09 61.432C1255.41 61.5173 1258.95 61.56 1262.71 61.56C1266.12 61.56 1269.49 61.5173 1272.82 61.432C1276.15 61.3467 1278.88 61.2613 1281.01 61.176V63.736C1278.28 63.8213 1276.19 64.1627 1274.74 64.76C1273.29 65.272 1272.31 66.296 1271.8 67.832C1271.37 69.2827 1271.16 71.5867 1271.16 74.744V106.872C1271.16 110.883 1271.33 114.637 1271.67 118.136C1272.1 121.635 1272.91 124.707 1274.1 127.352C1275.38 129.997 1277.26 132.088 1279.73 133.624C1282.21 135.075 1285.49 135.8 1289.59 135.8C1295.31 135.8 1299.74 134.52 1302.9 131.96C1306.06 129.315 1308.23 125.731 1309.43 121.208C1310.71 116.6 1311.35 111.437 1311.35 105.72V80.12C1311.35 75.9387 1311.01 72.7387 1310.33 70.52C1309.73 68.3013 1308.58 66.68 1306.87 65.656C1305.16 64.632 1302.6 63.992 1299.19 63.736V61.176C1300.81 61.2613 1302.9 61.3467 1305.46 61.432C1308.11 61.5173 1310.54 61.56 1312.76 61.56C1314.98 61.56 1317.15 61.5173 1319.29 61.432C1321.5 61.3467 1323.3 61.2613 1324.66 61.176ZM1380.1 61.176C1381.97 61.2613 1384.45 61.3467 1387.52 61.432C1390.59 61.5173 1393.66 61.56 1396.74 61.56C1400.75 61.56 1404.63 61.5173 1408.38 61.432C1412.14 61.3467 1414.78 61.304 1416.32 61.304C1427.5 61.304 1435.73 63.096 1441.02 66.68C1446.31 70.264 1448.96 74.9573 1448.96 80.76C1448.96 83.1493 1448.41 85.5813 1447.3 88.056C1446.27 90.5307 1444.48 92.8347 1441.92 94.968C1439.36 97.1013 1435.86 98.8933 1431.42 100.344C1427.07 101.709 1421.53 102.52 1414.78 102.776L1400.96 103.288C1400.96 103.288 1400.96 102.861 1400.96 102.008C1400.96 101.155 1400.96 100.728 1400.96 100.728H1413.5C1418.28 100.728 1421.95 99.9173 1424.51 98.296C1427.07 96.6747 1428.78 94.456 1429.63 91.64C1430.57 88.7387 1431.04 85.5813 1431.04 82.168C1431.04 76.1947 1429.76 71.6293 1427.2 68.472C1424.73 65.3147 1420.37 63.736 1414.14 63.736C1411.16 63.736 1409.19 64.4613 1408.26 65.912C1407.4 67.3627 1406.98 70.3067 1406.98 74.744V125.432C1406.98 128.504 1407.19 130.808 1407.62 132.344C1408.13 133.88 1409.07 134.904 1410.43 135.416C1411.88 135.928 1414.02 136.269 1416.83 136.44V139C1414.53 138.829 1411.63 138.744 1408.13 138.744C1404.63 138.659 1401.09 138.616 1397.5 138.616C1393.92 138.616 1390.59 138.659 1387.52 138.744C1384.45 138.744 1381.97 138.829 1380.1 139V136.44C1382.91 136.269 1385 135.928 1386.37 135.416C1387.82 134.904 1388.76 133.88 1389.18 132.344C1389.7 130.808 1389.95 128.504 1389.95 125.432V74.744C1389.95 71.5867 1389.7 69.24 1389.18 67.704C1388.67 66.168 1387.69 65.144 1386.24 64.632C1384.87 64.12 1382.83 63.8213 1380.1 63.736V61.176ZM1403.9 101.752C1408.51 101.923 1412.01 102.051 1414.4 102.136C1416.87 102.221 1418.84 102.307 1420.29 102.392C1421.74 102.392 1423.23 102.52 1424.77 102.776C1429.8 103.373 1434.07 104.653 1437.57 106.616C1441.07 108.493 1443.37 111.821 1444.48 116.6L1447.3 128.12C1447.89 130.765 1448.58 132.643 1449.34 133.752C1450.2 134.776 1451.31 135.288 1452.67 135.288C1453.7 135.288 1454.72 134.947 1455.74 134.264C1456.85 133.581 1457.83 132.813 1458.69 131.96L1460.48 133.624C1458.69 135.757 1456.6 137.507 1454.21 138.872C1451.82 140.152 1448.79 140.792 1445.12 140.792C1440.34 140.792 1436.76 139.811 1434.37 137.848C1431.98 135.8 1430.44 133.368 1429.76 130.552L1425.92 115.192C1424.9 110.157 1423.27 106.915 1421.06 105.464C1418.92 104.013 1415.98 103.288 1412.22 103.288H1403.9V101.752ZM1576.11 61.176C1575.77 64.0773 1575.51 66.936 1575.34 69.752C1575.25 72.4827 1575.21 74.5733 1575.21 76.024C1575.21 77.56 1575.25 79.0533 1575.34 80.504C1575.43 81.8693 1575.51 83.0213 1575.6 83.96H1572.65C1571.54 76.536 1569.54 71.3733 1566.64 68.472C1563.73 65.5707 1559.6 64.12 1554.22 64.12H1547.95C1545.64 64.12 1543.81 64.3333 1542.44 64.76C1541.16 65.1013 1540.27 65.9547 1539.76 67.32C1539.33 68.6 1539.12 70.5627 1539.12 73.208V126.968C1539.12 129.613 1539.33 131.619 1539.76 132.984C1540.27 134.264 1541.16 135.117 1542.44 135.544C1543.81 135.885 1545.64 136.056 1547.95 136.056H1554.73C1558.74 136.056 1562.11 135.373 1564.84 134.008C1567.57 132.557 1569.79 130.211 1571.5 126.968C1573.21 123.64 1574.44 119.203 1575.21 113.656H1578.16C1577.9 115.96 1577.77 119.032 1577.77 122.872C1577.77 124.408 1577.81 126.712 1577.9 129.784C1578.07 132.771 1578.33 135.843 1578.67 139C1574.49 138.829 1569.79 138.744 1564.59 138.744C1559.38 138.659 1554.73 138.616 1550.64 138.616C1547.99 138.616 1544.45 138.616 1540.01 138.616C1535.66 138.616 1531.01 138.659 1526.06 138.744C1521.2 138.744 1516.59 138.829 1512.24 139V136.44C1515.05 136.269 1517.14 135.928 1518.51 135.416C1519.96 134.904 1520.9 133.88 1521.32 132.344C1521.84 130.808 1522.09 128.504 1522.09 125.432V74.744C1522.09 71.5867 1521.84 69.2827 1521.32 67.832C1520.81 66.296 1519.83 65.272 1518.38 64.76C1517.01 64.1627 1514.97 63.8213 1512.24 63.736V61.176C1516.59 61.2613 1521.2 61.3467 1526.06 61.432C1531.01 61.5173 1535.66 61.56 1540.01 61.56C1544.45 61.56 1547.99 61.56 1550.64 61.56C1554.39 61.56 1558.61 61.56 1563.31 61.56C1568.09 61.4747 1572.35 61.3467 1576.11 61.176ZM1557.04 98.552C1557.04 98.552 1557.04 98.9787 1557.04 99.832C1557.04 100.685 1557.04 101.112 1557.04 101.112H1535.28C1535.28 101.112 1535.28 100.685 1535.28 99.832C1535.28 98.9787 1535.28 98.552 1535.28 98.552H1557.04ZM1561.77 84.984C1561.43 88.9093 1561.26 91.9387 1561.26 94.072C1561.35 96.2053 1561.39 98.1253 1561.39 99.832C1561.39 101.539 1561.43 103.459 1561.52 105.592C1561.6 107.725 1561.81 110.755 1562.16 114.68H1559.21C1558.87 112.376 1558.27 110.2 1557.42 108.152C1556.57 106.104 1555.29 104.44 1553.58 103.16C1551.96 101.795 1549.65 101.112 1546.67 101.112V98.552C1549.65 98.552 1551.96 97.784 1553.58 96.248C1555.2 94.712 1556.4 92.8773 1557.16 90.744C1557.93 88.6107 1558.49 86.6907 1558.83 84.984H1561.77ZM1556.65 29.56C1558.44 28.536 1560.24 28.2373 1562.03 28.664C1563.91 29.0053 1565.27 29.9867 1566.12 31.608C1566.89 33.144 1567.02 34.7227 1566.51 36.344C1566 37.9653 1564.8 39.3307 1562.92 40.44C1561.05 41.5493 1558.91 42.4453 1556.52 43.128C1554.22 43.8107 1551.49 44.6213 1548.33 45.56C1545.17 46.4987 1541.25 47.9493 1536.56 49.912L1535.66 48.248C1539.67 45.0907 1542.87 42.3173 1545.26 39.928C1547.65 37.5387 1549.65 35.4907 1551.28 33.784C1552.98 31.992 1554.77 30.584 1556.65 29.56Z" fill="black" fill-opacity="0.08"/>
<path d="M41.472 642.176V644.736C38.656 644.821 36.5227 645.163 35.072 645.76C33.7067 646.272 32.768 647.296 32.256 648.832C31.8293 650.283 31.616 652.587 31.616 655.744V707.456C31.616 710.187 31.8293 712.277 32.256 713.728C32.768 715.093 33.664 715.989 34.944 716.416C36.3093 716.843 38.144 717.056 40.448 717.056H46.464C50.048 717.056 53.2907 716.288 56.192 714.752C59.0933 713.131 61.5253 710.528 63.488 706.944C65.536 703.36 66.944 698.496 67.712 692.352H70.656C70.4 695.083 70.272 698.581 70.272 702.848C70.272 704.469 70.3147 706.901 70.4 710.144C70.5707 713.301 70.8267 716.587 71.168 720C66.9867 719.829 62.2933 719.744 57.088 719.744C51.8827 719.659 47.232 719.616 43.136 719.616C40.4907 719.616 36.9493 719.616 32.512 719.616C28.16 719.616 23.5093 719.659 18.56 719.744C13.696 719.744 9.088 719.829 4.736 720V717.44C7.552 717.269 9.64267 716.928 11.008 716.416C12.4587 715.904 13.3973 714.88 13.824 713.344C14.336 711.808 14.592 709.504 14.592 706.432V655.744C14.592 652.587 14.336 650.283 13.824 648.832C13.312 647.296 12.3307 646.272 10.88 645.76C9.51467 645.163 7.46667 644.821 4.736 644.736V642.176C6.784 642.261 9.472 642.347 12.8 642.432C16.2133 642.517 19.84 642.56 23.68 642.56C26.9227 642.56 30.1653 642.517 33.408 642.432C36.6507 642.347 39.3387 642.261 41.472 642.176ZM165.249 641.792L195.457 709.248C196.908 712.32 198.358 714.453 199.809 715.648C201.26 716.757 202.582 717.355 203.777 717.44V720C201.9 719.829 199.51 719.744 196.609 719.744C193.793 719.659 190.934 719.616 188.033 719.616C184.193 719.616 180.609 719.659 177.281 719.744C173.953 719.744 171.222 719.829 169.089 720V717.44C173.185 717.269 175.83 716.459 177.025 715.008C178.305 713.557 177.964 710.784 176.001 706.688L155.009 658.816L157.057 656.384L138.881 697.6C137.345 701.184 136.364 704.213 135.937 706.688C135.596 709.163 135.766 711.168 136.449 712.704C137.132 714.155 138.326 715.264 140.033 716.032C141.74 716.8 143.873 717.269 146.433 717.44V720C144.47 719.829 142.337 719.744 140.033 719.744C137.814 719.659 135.382 719.616 132.737 719.616C131.286 719.616 129.452 719.659 127.233 719.744C125.014 719.744 123.308 719.829 122.113 720V717.44C124.417 716.928 126.422 715.563 128.129 713.344C129.836 711.125 131.5 708.096 133.121 704.256L160.641 641.792C161.409 641.877 162.177 641.92 162.945 641.92C163.713 641.92 164.481 641.877 165.249 641.792ZM175.873 689.536V692.096H140.289L141.569 689.536H175.873ZM330.596 642.176V644.736C327.695 644.992 325.476 645.632 323.94 646.656C322.489 647.595 321.508 649.131 320.996 651.264C320.484 653.312 320.228 656.256 320.228 660.096V685.312C320.228 691.029 319.844 695.979 319.076 700.16C318.308 704.341 316.943 708.011 314.98 711.168C312.932 714.325 309.903 716.885 305.892 718.848C301.967 720.811 297.444 721.792 292.324 721.792C288.143 721.792 284.175 721.365 280.42 720.512C276.751 719.744 273.465 718.293 270.564 716.16C267.748 713.856 265.572 711.424 264.036 708.864C262.5 706.304 261.433 703.189 260.836 699.52C260.324 695.851 260.068 691.243 260.068 685.696V655.744C260.068 652.587 259.812 650.283 259.3 648.832C258.873 647.296 257.935 646.272 256.484 645.76C255.033 645.163 252.943 644.821 250.212 644.736V642.176C252.175 642.261 254.777 642.347 258.02 642.432C261.348 642.517 264.889 642.56 268.644 642.56C272.057 642.56 275.428 642.517 278.756 642.432C282.084 642.347 284.815 642.261 286.948 642.176V644.736C284.217 644.821 282.127 645.163 280.676 645.76C279.225 646.272 278.244 647.296 277.732 648.832C277.305 650.283 277.092 652.587 277.092 655.744V687.872C277.092 691.883 277.263 695.637 277.604 699.136C278.031 702.635 278.841 705.707 280.036 708.352C281.316 710.997 283.193 713.088 285.668 714.624C288.143 716.075 291.428 716.8 295.524 716.8C301.241 716.8 305.679 715.52 308.836 712.96C311.993 710.315 314.169 706.731 315.364 702.208C316.644 697.6 317.284 692.437 317.284 686.72V661.12C317.284 656.939 316.943 653.739 316.26 651.52C315.663 649.301 314.511 647.68 312.804 646.656C311.097 645.632 308.537 644.992 305.124 644.736V642.176C306.745 642.261 308.836 642.347 311.396 642.432C314.041 642.517 316.473 642.56 318.692 642.56C320.911 642.56 323.087 642.517 325.22 642.432C327.439 642.347 329.231 642.261 330.596 642.176ZM386.031 642.176C387.908 642.261 390.383 642.347 393.455 642.432C396.527 642.517 399.599 642.56 402.671 642.56C406.682 642.56 410.564 642.517 414.319 642.432C418.074 642.347 420.719 642.304 422.255 642.304C433.434 642.304 441.668 644.096 446.959 647.68C452.25 651.264 454.895 655.957 454.895 661.76C454.895 664.149 454.34 666.581 453.231 669.056C452.207 671.531 450.415 673.835 447.855 675.968C445.295 678.101 441.796 679.893 437.359 681.344C433.007 682.709 427.46 683.52 420.719 683.776L406.895 684.288C406.895 684.288 406.895 683.861 406.895 683.008C406.895 682.155 406.895 681.728 406.895 681.728H419.439C424.218 681.728 427.887 680.917 430.447 679.296C433.007 677.675 434.714 675.456 435.567 672.64C436.506 669.739 436.975 666.581 436.975 663.168C436.975 657.195 435.695 652.629 433.135 649.472C430.66 646.315 426.308 644.736 420.079 644.736C417.092 644.736 415.13 645.461 414.191 646.912C413.338 648.363 412.911 651.307 412.911 655.744V706.432C412.911 709.504 413.124 711.808 413.551 713.344C414.063 714.88 415.002 715.904 416.367 716.416C417.818 716.928 419.951 717.269 422.767 717.44V720C420.463 719.829 417.562 719.744 414.063 719.744C410.564 719.659 407.023 719.616 403.439 719.616C399.855 719.616 396.527 719.659 393.455 719.744C390.383 719.744 387.908 719.829 386.031 720V717.44C388.847 717.269 390.938 716.928 392.303 716.416C393.754 715.904 394.692 714.88 395.119 713.344C395.631 711.808 395.887 709.504 395.887 706.432V655.744C395.887 652.587 395.631 650.24 395.119 648.704C394.607 647.168 393.626 646.144 392.175 645.632C390.81 645.12 388.762 644.821 386.031 644.736V642.176ZM409.839 682.752C414.447 682.923 417.946 683.051 420.335 683.136C422.81 683.221 424.772 683.307 426.223 683.392C427.674 683.392 429.167 683.52 430.703 683.776C435.738 684.373 440.004 685.653 443.503 687.616C447.002 689.493 449.306 692.821 450.415 697.6L453.231 709.12C453.828 711.765 454.511 713.643 455.279 714.752C456.132 715.776 457.242 716.288 458.607 716.288C459.631 716.288 460.655 715.947 461.679 715.264C462.788 714.581 463.77 713.813 464.623 712.96L466.415 714.624C464.623 716.757 462.532 718.507 460.143 719.872C457.754 721.152 454.724 721.792 451.055 721.792C446.276 721.792 442.692 720.811 440.303 718.848C437.914 716.8 436.378 714.368 435.695 711.552L431.855 696.192C430.831 691.157 429.21 687.915 426.991 686.464C424.858 685.013 421.914 684.288 418.159 684.288H409.839V682.752ZM582.043 642.176C581.702 645.077 581.446 647.936 581.275 650.752C581.19 653.483 581.147 655.573 581.147 657.024C581.147 658.56 581.19 660.053 581.275 661.504C581.36 662.869 581.446 664.021 581.531 664.96H578.587C577.478 657.536 575.472 652.373 572.571 649.472C569.67 646.571 565.531 645.12 560.155 645.12H553.883C551.579 645.12 549.744 645.333 548.379 645.76C547.099 646.101 546.203 646.955 545.691 648.32C545.264 649.6 545.051 651.563 545.051 654.208V707.968C545.051 710.613 545.264 712.619 545.691 713.984C546.203 715.264 547.099 716.117 548.379 716.544C549.744 716.885 551.579 717.056 553.883 717.056H560.667C564.678 717.056 568.048 716.373 570.779 715.008C573.51 713.557 575.728 711.211 577.435 707.968C579.142 704.64 580.379 700.203 581.147 694.656H584.091C583.835 696.96 583.707 700.032 583.707 703.872C583.707 705.408 583.75 707.712 583.835 710.784C584.006 713.771 584.262 716.843 584.603 720C580.422 719.829 575.728 719.744 570.523 719.744C565.318 719.659 560.667 719.616 556.571 719.616C553.926 719.616 550.384 719.616 545.947 719.616C541.595 719.616 536.944 719.659 531.995 719.744C527.131 719.744 522.523 719.829 518.171 720V717.44C520.987 717.269 523.078 716.928 524.443 716.416C525.894 715.904 526.832 714.88 527.259 713.344C527.771 711.808 528.027 709.504 528.027 706.432V655.744C528.027 652.587 527.771 650.283 527.259 648.832C526.747 647.296 525.766 646.272 524.315 645.76C522.95 645.163 520.902 644.821 518.171 644.736V642.176C522.523 642.261 527.131 642.347 531.995 642.432C536.944 642.517 541.595 642.56 545.947 642.56C550.384 642.56 553.926 642.56 556.571 642.56C560.326 642.56 564.55 642.56 569.243 642.56C574.022 642.475 578.288 642.347 582.043 642.176ZM562.971 679.552C562.971 679.552 562.971 679.979 562.971 680.832C562.971 681.685 562.971 682.112 562.971 682.112H541.211C541.211 682.112 541.211 681.685 541.211 680.832C541.211 679.979 541.211 679.552 541.211 679.552H562.971ZM567.707 665.984C567.366 669.909 567.195 672.939 567.195 675.072C567.28 677.205 567.323 679.125 567.323 680.832C567.323 682.539 567.366 684.459 567.451 686.592C567.536 688.725 567.75 691.755 568.091 695.68H565.147C564.806 693.376 564.208 691.2 563.355 689.152C562.502 687.104 561.222 685.44 559.515 684.16C557.894 682.795 555.59 682.112 552.603 682.112V679.552C555.59 679.552 557.894 678.784 559.515 677.248C561.136 675.712 562.331 673.877 563.099 671.744C563.867 669.611 564.422 667.691 564.763 665.984H567.707ZM562.587 610.56C564.379 609.536 566.171 609.237 567.963 609.664C569.84 610.005 571.206 610.987 572.059 612.608C572.827 614.144 572.955 615.723 572.443 617.344C571.931 618.965 570.736 620.331 568.859 621.44C566.982 622.549 564.848 623.445 562.459 624.128C560.155 624.811 557.424 625.621 554.267 626.56C551.11 627.499 547.184 628.949 542.491 630.912L541.595 629.248C545.606 626.091 548.806 623.317 551.195 620.928C553.584 618.539 555.59 616.491 557.211 614.784C558.918 612.992 560.71 611.584 562.587 610.56Z" fill="#D4AF37" fill-opacity="0.38"/>
</svg>
