<svg width="26" height="24" viewBox="0 0 26 24" fill="none" xmlns="http://www.w3.org/2000/svg">
<path d="M13.9406 0.973027C13.7612 0.623027 13.3981 0.399902 13.0043 0.399902C12.6106 0.399902 12.2474 0.623027 12.0681 0.973027L8.84807 7.28178L1.85244 8.39303C1.46307 8.45428 1.13932 8.7299 1.01682 9.10615C0.894316 9.4824 0.994941 9.89365 1.27057 10.1737L6.27557 15.183L5.17307 22.1787C5.11182 22.568 5.27369 22.9618 5.59307 23.1937C5.91244 23.4255 6.33244 23.4605 6.68682 23.2812L13.0043 20.0699L19.3174 23.2812C19.6674 23.4605 20.0918 23.4255 20.4112 23.1937C20.7306 22.9618 20.8924 22.5724 20.8312 22.1787L19.7243 15.183L24.7293 10.1737C25.0093 9.89365 25.1056 9.4824 24.9831 9.10615C24.8606 8.7299 24.5412 8.45428 24.1474 8.39303L17.1562 7.28178L13.9406 0.973027Z" fill="#D4AF37"/>
</svg>
