<svg width="28" height="28" viewBox="0 0 28 28" fill="none" xmlns="http://www.w3.org/2000/svg">
<path d="M14.9406 1.97303C14.7612 1.62303 14.3981 1.3999 14.0043 1.3999C13.6106 1.3999 13.2474 1.62303 13.0681 1.97303L9.84807 8.28178L2.85244 9.39303C2.46307 9.45428 2.13932 9.7299 2.01682 10.1062C1.89432 10.4824 1.99494 10.8937 2.27057 11.1737L7.27557 16.183L6.17307 23.1787C6.11182 23.568 6.27369 23.9618 6.59307 24.1937C6.91244 24.4255 7.33244 24.4605 7.68682 24.2812L14.0043 21.0699L20.3174 24.2812C20.6674 24.4605 21.0918 24.4255 21.4112 24.1937C21.7306 23.9618 21.8924 23.5724 21.8312 23.1787L20.7243 16.183L25.7293 11.1737C26.0093 10.8937 26.1056 10.4824 25.9831 10.1062C25.8606 9.7299 25.5412 9.45428 25.1474 9.39303L18.1562 8.28178L14.9406 1.97303Z" fill="black"/>
</svg>
