<svg width="25" height="20" viewBox="0 0 25 20" fill="none" xmlns="http://www.w3.org/2000/svg">
<path d="M12.5 0C14.7422 0 16.5625 2.00862 16.5625 4.48276C16.5625 6.9569 14.7422 8.96552 12.5 8.96552C10.2578 8.96552 8.4375 6.9569 8.4375 4.48276C8.4375 2.00862 10.2578 0 12.5 0ZM3.75 3.10345C5.30469 3.10345 6.5625 4.49138 6.5625 6.2069C6.5625 7.92241 5.30469 9.31034 3.75 9.31034C2.19531 9.31034 0.9375 7.92241 0.9375 6.2069C0.9375 4.49138 2.19531 3.10345 3.75 3.10345ZM0 17.2414C0 14.194 2.23828 11.7241 5 11.7241C5.5 11.7241 5.98437 11.806 6.44141 11.9569C5.15625 13.5431 4.375 15.6379 4.375 17.931V18.6207C4.375 19.1121 4.46875 19.5776 4.63672 20H1.25C0.558594 20 0 19.3836 0 18.6207V17.2414ZM20.3633 20C20.5312 19.5776 20.625 19.1121 20.625 18.6207V17.931C20.625 15.6379 19.8438 13.5431 18.5586 11.9569C19.0156 11.806 19.5 11.7241 20 11.7241C22.7617 11.7241 25 14.194 25 17.2414V18.6207C25 19.3836 24.4414 20 23.75 20H20.3633ZM18.4375 6.2069C18.4375 4.49138 19.6953 3.10345 21.25 3.10345C22.8047 3.10345 24.0625 4.49138 24.0625 6.2069C24.0625 7.92241 22.8047 9.31034 21.25 9.31034C19.6953 9.31034 18.4375 7.92241 18.4375 6.2069ZM6.25 17.931C6.25 14.1207 9.04687 11.0345 12.5 11.0345C15.9531 11.0345 18.75 14.1207 18.75 17.931V18.6207C18.75 19.3836 18.1914 20 17.5 20H7.5C6.80859 20 6.25 19.3836 6.25 18.6207V17.931Z" fill="#D4AF37"/>
</svg>
